# xmcd
#
# Track frame offsets: 
#        150
#        17745
#        34915
#        46535
#        64210
#        94020
#        113265
#        158562
#        175982
#        194965
#        210315
#        228602
#
# Disc length: 3336 seconds
#
# Revision: 1
# Processed by: cddbd v1.5.2PL0 Copyright (c) Steve Scherf et al.
# Submitted via: ExactAudioCopy v1.0b3
#
DISCID=960d060c
DTITLE=Clarence Gatemouth Brown - Okie Dokie Stomp
DYEAR=1999
DGENRE=Blues
TTITLE0=Stranded
TTITLE1=Frosty
TTITLE2=I Feel Alright Again
TTITLE3=Sunrise Cajun Style
TTITLE4=Sometimes I Slip
TTITLE5=One More Mile
TTITLE6=The Drifter
TTITLE7=Real Life
TTITLE8=Okie Dokie Stomp
TTITLE9=Information Blues
TTITLE10=Gate Walks To Board
TTITLE11=Dollar Got The Blues
EXTD=
EXTT0=
EXTT1=
EXTT2=
EXTT3=
EXTT4=
EXTT5=
EXTT6=
EXTT7=
EXTT8=
EXTT9=
EXTT10=
EXTT11=
PLAYORDER=
